<?xml version="1.0" standalone="no"?>
<!DOCTYPE svg PUBLIC "-//W3C//DTD SVG 20010904//EN"
 "http://www.w3.org/TR/2001/REC-SVG-20010904/DTD/svg10.dtd">
<svg version="1.0" xmlns="http://www.w3.org/2000/svg"
 width="200.000000pt" height="200.000000pt" viewBox="0 0 200.000000 200.000000"
 preserveAspectRatio="xMidYMid meet">
<metadata>
Created by potrace 1.14, written by Peter Selinger 2001-2017
</metadata>
<g transform="translate(0.000000,200.000000) scale(0.100000,-0.100000)"
fill="#000000" stroke="none">
<path d="M870 1939 c-88 -11 -218 -53 -310 -99 -177 -89 -324 -237 -414 -416
-186 -373 -115 -817 178 -1110 348 -347 903 -372 1287 -58 284 233 408 633
308 994 -128 458 -573 750 -1049 689z m-77 -526 c82 -82 157 -165 168 -185 23
-44 25 -125 5 -171 -18 -42 -314 -333 -345 -340 -38 -9 -88 20 -101 57 -6 18
-8 42 -4 52 4 10 65 78 135 150 105 106 129 136 129 159 0 24 -23 53 -124 155
-69 69 -130 138 -136 154 -22 58 20 116 83 116 39 0 47 -7 190 -147z m664 127
c60 -55 44 -91 -108 -246 -90 -92 -129 -138 -129 -154 0 -17 39 -63 129 -155
75 -76 133 -143 137 -159 16 -65 -52 -128 -113 -105 -41 15 -311 286 -334 334
-24 52 -24 118 1 170 12 25 80 101 169 188 141 139 151 147 188 147 25 0 47
-7 60 -20z m-747 -915 c0 -8 -9 -15 -20 -15 -11 0 -20 7 -20 15 0 8 9 15 20
15 11 0 20 -7 20 -15z m620 -88 c0 -67 -4 -107 -12 -115 -16 -16 -130 -16
-146 0 -7 7 -12 38 -12 70 0 66 12 78 79 78 30 0 41 -4 41 -15 0 -10 -10 -15
-32 -15 -49 0 -60 -12 -56 -56 l3 -39 50 0 50 0 3 98 c2 77 6 97 17 97 12 0
15 -19 15 -103z m-840 -26 c0 -33 4 -62 9 -65 16 -11 75 39 95 81 13 25 28 42
39 43 24 0 22 -8 -15 -70 -35 -57 -83 -90 -130 -90 l-28 0 0 80 c0 64 3 80 15
80 12 0 15 -13 15 -59z m220 -21 c0 -73 -2 -80 -20 -80 -18 0 -20 7 -20 80 0
73 2 80 20 80 18 0 20 -7 20 -80z m200 65 c0 -11 -13 -15 -52 -15 -70 0 -80
-8 -76 -56 l3 -39 63 -3 c46 -2 62 -7 62 -17 0 -19 -130 -21 -148 -3 -18 18
-15 113 4 132 22 22 144 23 144 1z m192 -2 c23 -21 25 -104 2 -127 -21 -22
-127 -22 -148 0 -22 21 -21 102 1 126 22 24 118 25 145 1z m432 1 c19 -18 21
-55 4 -72 -18 -18 -108 -16 -108 3 0 11 12 15 45 15 33 0 45 4 45 15 0 17 -35
28 -76 23 -27 -3 -29 -6 -29 -48 l0 -45 43 -3 c28 -2 42 -8 42 -18 0 -18 -90
-20 -108 -2 -7 7 -12 38 -12 70 0 68 10 77 87 78 34 0 57 -5 67 -16z"/>
<path d="M988 529 c-18 -10 -23 -44 -12 -73 4 -12 20 -16 54 -16 51 0 60 9 60
55 0 39 -60 59 -102 34z"/>
</g>
</svg>
