<?xml version="1.0" standalone="no"?>
<!DOCTYPE svg PUBLIC "-//W3C//DTD SVG 20010904//EN"
 "http://www.w3.org/TR/2001/REC-SVG-20010904/DTD/svg10.dtd">
<svg version="1.0" xmlns="http://www.w3.org/2000/svg"
 width="200.000000pt" height="200.000000pt" viewBox="0 0 200.000000 200.000000"
 preserveAspectRatio="xMidYMid meet">
<metadata>
Created by potrace 1.14, written by Peter Selinger 2001-2017
</metadata>
<g transform="translate(0.000000,200.000000) scale(0.100000,-0.100000)"
fill="#000000" stroke="none">
<path d="M870 1939 c-137 -18 -329 -94 -436 -174 -473 -355 -524 -1036 -110
-1451 348 -347 903 -372 1287 -58 284 233 408 633 308 994 -128 458 -573 750
-1049 689z m-337 -413 c18 -7 118 -101 223 -207 209 -212 219 -227 218 -334
-1 -91 -26 -130 -208 -314 -190 -192 -225 -221 -275 -221 -74 0 -133 70 -116
138 4 15 76 97 176 198 149 152 169 176 169 205 0 28 -20 52 -169 203 -141
142 -170 177 -176 208 -9 48 17 96 65 120 42 22 51 22 93 4z m1034 -6 c44 -26
67 -73 58 -119 -6 -29 -37 -67 -176 -207 -152 -154 -169 -174 -169 -205 0 -31
15 -49 158 -189 88 -85 167 -170 176 -189 38 -73 -16 -161 -99 -161 -57 0 -86
23 -283 222 -180 184 -206 224 -206 318 0 102 11 119 218 329 225 228 252 245
323 201z"/>
</g>
</svg>
